<svg xmlns="http://www.w3.org/2000/svg" xmlns:xlink="http://www.w3.org/1999/xlink" xmlns:svgjs="http://svgjs.com/svgjs" width="512" height="512" x="0" y="0" viewBox="0 0 64 64" style="enable-background:new 0 0 512 512" xml:space="preserve" class=""><g><path d="M59 51a3.009 3.009 0 0 0 3-3V37.83a3 3 0 0 0-.88-2.13L49.3 23.88a3 3 0 0 0-2.13-.88H45v-1a3 3 0 0 0-6 0v1H15a5 5 0 0 0-5 5v20a3.009 3.009 0 0 0 3 3h2.08a6.968 6.968 0 0 0 2.03 4H2v2h60v-2h-7.11a6.968 6.968 0 0 0 2.03-4zm.7-13.88a1 1 0 0 1 .3.71V39H47V29h4.59zM41 22a1 1 0 0 1 2 0v1h-2zM22 55a5 5 0 1 1 5-5 5 5 0 0 1-5 5zm4.89 0a6.968 6.968 0 0 0 2.03-4h14.16a6.968 6.968 0 0 0 2.03 4zM50 55a5 5 0 1 1 5-5 5 5 0 0 1-5 5zm0-12a7 7 0 0 0-6.92 6H28.92a6.991 6.991 0 0 0-13.84 0H13a1 1 0 0 1-1-1V28a3.009 3.009 0 0 1 3-3h32.17a1 1 0 0 1 .71.3l1.71 1.7H47a2.006 2.006 0 0 0-2 2v10a2.006 2.006 0 0 0 2 2h13v7a1 1 0 0 1-1 1h-2.08A7 7 0 0 0 50 43z" fill="#00b09e" data-original="#000000"></path><path d="M2 46h5v2H2zM4 42h3v2H4zM5 38h2v2H5zM16 17h16v2H16zM12 17h2v2h-2zM10 13h18v2H10zM6 13h2v2H6zM22 47a3 3 0 1 0 3 3 3 3 0 0 0-3-3zm0 4a1 1 0 1 1 1-1 1 1 0 0 1-1 1zM50 47a3 3 0 1 0 3 3 3 3 0 0 0-3-3zm0 4a1 1 0 1 1 1-1 1 1 0 0 1-1 1zM23 38h3v3a1 1 0 0 0 1 1h4a1 1 0 0 0 1-1v-3h3a1 1 0 0 0 1-1v-4a1 1 0 0 0-1-1h-3v-3a1 1 0 0 0-1-1h-4a1 1 0 0 0-1 1v3h-3a1 1 0 0 0-1 1v4a1 1 0 0 0 1 1zm1-4h3a1 1 0 0 0 1-1v-3h2v3a1 1 0 0 0 1 1h3v2h-3a1 1 0 0 0-1 1v3h-2v-3a1 1 0 0 0-1-1h-3zM41 13h2v4h-2zM45.286 17.296l3-3L49.7 15.71l-3 3zM34.287 15.71l1.414-1.415 3 3-1.414 1.414z" fill="#00b09e" data-original="#000000"></path></g></svg>