<svg xmlns="http://www.w3.org/2000/svg" xmlns:xlink="http://www.w3.org/1999/xlink" xmlns:svgjs="http://svgjs.com/svgjs" width="512" height="512" x="0" y="0" viewBox="0 0 64 64" style="enable-background:new 0 0 512 512" xml:space="preserve" class=""><g><path d="M55.615 4H8.385A4.39 4.39 0 0 0 4 8.385V40.13a4.39 4.39 0 0 0 4.385 4.385h17.306l-.781 7.939h-6.502a3.19 3.19 0 0 0-3.187 3.187V59a1 1 0 0 0 1 1h31.733a1 1 0 0 0 1-1v-3.36a3.19 3.19 0 0 0-3.186-3.186H39.09l-.78-7.94h17.305A4.39 4.39 0 0 0 60 40.13V8.385A4.39 4.39 0 0 0 55.615 4zm-8.66 51.64V58H17.22v-2.36a1.189 1.189 0 0 1 1.187-1.186h27.36a1.188 1.188 0 0 1 1.186 1.187zm-9.874-3.186H26.92l.78-7.94H36.3zM58 40.13a2.388 2.388 0 0 1-2.385 2.385c-6.687.005-47.177-.025-47.23 0A2.388 2.388 0 0 1 6 40.13V8.385A2.387 2.387 0 0 1 8.385 6h47.23A2.387 2.387 0 0 1 58 8.385z" fill="#00b09e" data-original="#000000"></path><path d="M53.584 9.104H10.416a1 1 0 0 0-1 1v22.424a1 1 0 0 0 1 1h43.168a1 1 0 0 0 1-1V10.104a1 1 0 0 0-1-1zm-1 22.424H11.416V11.104h41.168zM14.015 36.745a1.273 1.273 0 0 0 0 2.545 1.273 1.273 0 0 0 0-2.545zM20.099 36.745a1.273 1.273 0 0 0 0 2.545 1.273 1.273 0 0 0 0-2.545zM26.183 36.745a1.273 1.273 0 0 0 0 2.545 1.273 1.273 0 0 0 0-2.545z" fill="#00b09e" data-original="#000000"></path><path d="M15.177 22.316h3.26a1 1 0 0 0 .907-.579l1.095-2.362 2.78 7.823a1.006 1.006 0 0 0 1.914-.096l1.176-4.786h2.806a1 1 0 0 0 0-2h-3.59a1 1 0 0 0-.97.762l-.568 2.307-2.483-6.986a1.008 1.008 0 0 0-1.85-.086l-1.856 4.003h-2.621a1 1 0 0 0 0 2zM34.811 16.326h13.623a1 1 0 0 0 0-2H34.81a1 1 0 0 0 0 2zM34.811 22.316h4.535a1 1 0 0 0 0-2H34.81a1 1 0 0 0 0 2zM43.343 20.316a1 1 0 0 0 0 2h5.48a1 1 0 0 0 0-2zM34.811 28.307h13.623a1 1 0 0 0 0-2H34.81a1 1 0 0 0 0 2zM52 35.39h-4.544a1 1 0 0 0-1 1v3.255a1 1 0 0 0 1 1H52a1 1 0 0 0 1-1V36.39a1 1 0 0 0-1-1zm-1 3.255h-2.544V37.39H51z" fill="#00b09e" data-original="#000000"></path></g></svg>